<svg xmlns="http://www.w3.org/2000/svg" width="270" height="48" viewBox="0 0 270 48" fill="none"><path d="M19.993 34.2219C19.6343 34.503 19.455 34.6435 19.2563 34.6962C19.0883 34.7407 18.9117 34.7407 18.7437 34.6962C18.545 34.6435 18.3657 34.503 18.007 34.2219L4.48563 23.6273C3.34986 22.7374 2.78198 22.2924 2.72241 21.9001C2.67311 21.5754 2.78637 21.2472 3.02544 21.0221C3.31429 20.75 4.03573 20.75 5.47862 20.75H32.5214C33.9643 20.75 34.6857 20.75 34.9746 21.0221C35.2136 21.2472 35.3269 21.5754 35.2776 21.9001C35.218 22.2924 34.6501 22.7374 33.5144 23.6273L19.993 34.2219Z" fill="#109DCE"></path><path fill-rule="evenodd" clip-rule="evenodd" d="M31.48 24H6.52C5.91964 24 5.44952 24.0001 5.04393 24.0068C5.03164 24.007 5.01948 24.0072 5.00744 24.0074C5.00723 24.0195 5.00702 24.0316 5.00682 24.0439C5.00014 24.4495 5 24.9196 5 25.52V40.48C5 41.0804 5.00014 41.5505 5.00682 41.9561C5.00702 41.9684 5.00723 41.9805 5.00744 41.9926C5.01948 41.9928 5.03164 41.993 5.04393 41.9932C5.44952 41.9999 5.91964 42 6.52 42H31.48C32.0804 42 32.5505 41.9999 32.9561 41.9932C32.9684 41.993 32.9805 41.9928 32.9926 41.9926C32.9928 41.9805 32.993 41.9684 32.9932 41.9561C32.9999 41.5505 33 41.0804 33 40.48V25.52C33 24.9196 32.9999 24.4495 32.9932 24.0439C32.993 24.0316 32.9928 24.0195 32.9926 24.0074C32.9805 24.0072 32.9684 24.007 32.9561 24.0068C32.5505 24.0001 32.0804 24 31.48 24ZM0.479747 21.1006C0 21.9897 0 23.1665 0 25.52V40.48C0 42.8335 0 44.0103 0.479747 44.8994C0.850337 45.5863 1.41375 46.1497 2.10057 46.5203C2.9897 47 4.16647 47 6.52 47H31.48C33.8335 47 35.0103 47 35.8994 46.5203C36.5863 46.1497 37.1497 45.5863 37.5203 44.8994C38 44.0103 38 42.8335 38 40.48V25.52C38 23.1665 38 21.9897 37.5203 21.1006C37.1497 20.4138 36.5863 19.8503 35.8994 19.4797C35.0103 19 33.8335 19 31.48 19H6.52C4.16647 19 2.9897 19 2.10057 19.4797C1.41375 19.8503 0.850337 20.4138 0.479747 21.1006Z" fill="#133B65"></path><path d="M29.2148 16C29.4806 16 29.6135 16 29.7161 15.9507C29.8186 15.9015 29.9012 15.8188 29.9504 15.7163C29.9997 15.6137 29.9996 15.4809 29.9995 15.2153C29.9991 14.2748 29.9984 12.819 29.9973 12.7657C29.9682 11.401 29.6853 10.0529 29.1624 8.79048C28.6096 7.4559 27.7994 6.24327 26.7779 5.22182C25.7565 4.20038 24.5439 3.39012 23.2093 2.83732C21.8747 2.28452 20.4443 2 18.9998 2C17.5552 2 16.1248 2.28452 14.7902 2.83733C13.4557 3.39013 12.243 4.20038 11.2216 5.22182C10.2001 6.24327 9.38989 7.4559 8.83708 8.79048C8.31419 10.0529 8.03133 11.401 8.00225 12.7657C8.00112 12.819 8.00037 14.2748 8.00001 15.2153C7.99991 15.4809 7.99986 15.6137 8.04911 15.7163C8.09828 15.8188 8.18096 15.9015 8.28341 15.9507C8.38604 16 8.51895 16 8.78476 16H10.6365C10.9025 16 11.0355 16 11.138 15.9508C11.2405 15.9016 11.3231 15.8191 11.3723 15.7166C11.4216 15.6141 11.4217 15.4812 11.4218 15.2153C11.4224 14.2748 11.4234 12.819 11.4251 12.7657C11.4534 11.8504 11.6474 10.9471 11.9983 10.0999C12.3792 9.18048 12.9374 8.34505 13.6411 7.64134C14.3448 6.93763 15.1802 6.37942 16.0997 5.99858C17.0191 5.61773 18.0046 5.42171 18.9998 5.42171C19.995 5.42171 20.9804 5.61773 21.8998 5.99858C22.8193 6.37942 23.6547 6.93763 24.3584 7.64134C25.0621 8.34505 25.6203 9.18047 26.0012 10.0999C26.3521 10.9471 26.5461 11.8504 26.5744 12.7657C26.5761 12.819 26.5772 14.2748 26.5777 15.2153C26.5778 15.4812 26.5779 15.6141 26.6272 15.7166C26.6764 15.8191 26.759 15.9016 26.8615 15.9508C26.9641 16 27.0971 16 27.363 16H29.2148Z" fill="#133B65"></path><path fill-rule="evenodd" clip-rule="evenodd" d="M8.76304 17C8.77046 17 8.77778 17 8.785 17H10.6367C10.6439 17 10.6513 17 10.6587 17C10.7718 17 10.907 17.0001 11.0261 16.9908C11.1639 16.9802 11.3616 16.9528 11.571 16.8523C11.8783 16.7048 12.1262 16.4571 12.2738 16.1498C12.3744 15.9406 12.4019 15.7429 12.4127 15.6052C12.422 15.486 12.422 15.3509 12.4221 15.2378C12.4221 15.2304 12.4221 15.2231 12.4221 15.2159C12.4223 14.7457 12.4227 14.1468 12.4233 13.6589C12.4236 13.4149 12.4239 13.199 12.4242 13.0408C12.4244 12.9458 12.4246 12.8797 12.4248 12.8405C12.4249 12.8082 12.4249 12.794 12.4249 12.7966C12.4494 12.0021 12.6178 11.218 12.9225 10.4826C13.253 9.68448 13.7376 8.9593 14.3484 8.34845C14.9593 7.7376 15.6845 7.25305 16.4826 6.92246C17.2807 6.59187 18.1361 6.42172 19 6.42172C19.8639 6.42172 20.7193 6.59187 21.5174 6.92246C22.3155 7.25305 23.0407 7.7376 23.6515 8.34845C24.2624 8.9593 24.747 9.68448 25.0775 10.4826C25.3822 11.218 25.5506 12.0021 25.5751 12.7966C25.5751 12.794 25.5751 12.8083 25.5752 12.8406C25.5754 12.8799 25.5756 12.9459 25.5758 13.0408C25.5761 13.199 25.5764 13.4149 25.5767 13.6589C25.5773 14.1468 25.5777 14.7457 25.5779 15.2159L25.5779 15.2378C25.578 15.3509 25.578 15.486 25.5873 15.6052C25.5981 15.7429 25.6256 15.9405 25.7262 16.1498C25.8738 16.4571 26.1217 16.7048 26.429 16.8523C26.6384 16.9528 26.8361 16.9802 26.9739 16.9908C27.093 17.0001 27.2282 17 27.3413 17H29.237C29.35 17 29.4852 17.0001 29.6044 16.9908C29.7422 16.9801 29.9399 16.9527 30.1493 16.8521C30.4567 16.7045 30.7047 16.4564 30.8522 16.1489C30.9527 15.9396 30.98 15.742 30.9907 15.6041C30.9999 15.4849 30.9998 15.3499 30.9998 15.237L30.9998 15.2149C30.9994 14.2873 30.9987 12.8117 30.9973 12.7444C30.9656 11.2556 30.657 9.78494 30.0866 8.4078C29.4835 6.95189 28.5996 5.62902 27.4853 4.51472C26.371 3.40042 25.0481 2.5165 23.5922 1.91344C22.1363 1.31039 20.5759 1 19 1C17.4241 1 15.8637 1.31039 14.4078 1.91345C12.9519 2.5165 11.629 3.40042 10.5147 4.51472C9.40041 5.62902 8.5165 6.95189 7.91344 8.4078C7.34302 9.78494 7.03444 11.2556 7.00272 12.7444C7.00129 12.8117 7.0006 14.2873 7.00025 15.2149C7.00025 15.2222 7.00024 15.2295 7.00024 15.2369C7.00015 15.3499 7.00005 15.4849 7.00927 15.6041C7.01995 15.742 7.04733 15.9396 7.14778 16.1489C7.29532 16.4564 7.54328 16.7045 7.85068 16.8521C8.06007 16.9527 8.25777 16.9801 8.39565 16.9908C8.51484 17.0001 8.64996 17 8.76304 17ZM9.00034 15C9.0005 14.6074 9.00072 14.158 9.001 13.7657H10.4232C10.4227 14.1625 10.4224 14.6127 10.4222 15H9.00034ZM10.511 11.7657H9.07647C9.18706 10.8765 9.41689 10.0044 9.7612 9.17317C10.2638 7.95991 11.0003 6.85752 11.9289 5.92893C12.8575 5.00035 13.9599 4.26375 15.1732 3.76121C16.3864 3.25866 17.6868 3 19 3C20.3132 3 21.6136 3.25866 22.8268 3.7612C24.0401 4.26375 25.1425 5.00035 26.0711 5.92893C26.9997 6.85752 27.7362 7.95991 28.2388 9.17317C28.5831 10.0044 28.8129 10.8765 28.9235 11.7657H27.489C27.3869 11.0637 27.198 10.3755 26.9253 9.71723C26.4942 8.67647 25.8623 7.7308 25.0658 6.93424C24.2692 6.13767 23.3235 5.5058 22.2828 5.0747C21.242 4.6436 20.1265 4.42172 19 4.42172C17.8735 4.42172 16.758 4.6436 15.7172 5.0747C14.6765 5.5058 13.7308 6.13767 12.9342 6.93424C12.1377 7.7308 11.5058 8.67647 11.0747 9.71723C10.802 10.3755 10.613 11.0637 10.511 11.7657ZM27.5768 13.7657H28.999C28.9993 14.158 28.9995 14.6074 28.9997 15H27.5778C27.5776 14.6127 27.5773 14.1625 27.5768 13.7657Z" fill="#133B65"></path><path d="M57.3573 47C56.8162 47 56.5456 47 56.3374 46.898C56.1381 46.8004 55.9769 46.6392 55.8793 46.4399C55.7773 46.2318 55.7773 45.9612 55.7773 45.42V12.069C55.7773 11.5278 55.7773 11.2572 55.8793 11.049C55.9769 10.8497 56.1381 10.6886 56.3374 10.5909C56.5456 10.489 56.8162 10.489 57.3573 10.489H64.5247C65.0659 10.489 65.3365 10.489 65.5447 10.5909C65.744 10.6886 65.9051 10.8497 66.0028 11.049C66.1047 11.2572 66.1047 11.5278 66.1047 12.069V37.2311C66.1047 37.7723 66.1047 38.0429 66.2067 38.251C66.3044 38.4503 66.4655 38.6115 66.6648 38.7091C66.873 38.8111 67.1436 38.8111 67.6847 38.8111H81.9457C82.4869 38.8111 82.7575 38.8111 82.9657 38.9131C83.1649 39.0107 83.3261 39.1719 83.4237 39.3711C83.5257 39.5793 83.5257 39.8499 83.5257 40.3911V45.42C83.5257 45.9612 83.5257 46.2318 83.4237 46.4399C83.3261 46.6392 83.1649 46.8004 82.9657 46.898C82.7575 47 82.4869 47 81.9457 47H57.3573Z" fill="#133B65"></path><path d="M104.103 47.7302C98.7134 47.7302 94.5059 46.2524 91.4807 43.2967C88.4555 40.3411 86.9429 36.151 86.9429 30.7265V12.069C86.9429 11.5278 86.9429 11.2572 87.0449 11.049C87.1425 10.8497 87.3037 10.6886 87.503 10.5909C87.7111 10.489 87.9817 10.489 88.5229 10.489H95.6903C96.2315 10.489 96.5021 10.489 96.7103 10.5909C96.9095 10.6886 97.0707 10.8497 97.1683 11.049C97.2703 11.2572 97.2703 11.5278 97.2703 12.069V30.4136C97.2703 33.5431 97.8788 35.7859 99.0959 37.142C100.348 38.4981 102.052 39.1762 104.207 39.1762C106.363 39.1762 108.05 38.4981 109.267 37.142C110.484 35.7859 111.092 33.5431 111.092 30.4136V12.069C111.092 11.5278 111.092 11.2572 111.194 11.049C111.292 10.8497 111.453 10.6886 111.652 10.5909C111.861 10.489 112.131 10.489 112.672 10.489H119.683C120.224 10.489 120.495 10.489 120.703 10.5909C120.902 10.6886 121.064 10.8497 121.161 11.049C121.263 11.2572 121.263 11.5278 121.263 12.069V30.7265C121.263 36.151 119.751 40.3411 116.725 43.2967C113.7 46.2524 109.493 47.7302 104.103 47.7302Z" fill="#133B65"></path><path d="M127.079 47C126.105 47 125.617 47 125.353 46.8042C125.101 46.6182 124.951 46.3253 124.947 46.0125C124.943 45.683 125.228 45.2876 125.797 44.4968L137.797 27.8307C138.057 27.4691 138.187 27.2884 138.271 27.2141C138.843 26.7096 139.746 27.0045 139.91 27.749C139.934 27.8586 139.932 28.0814 139.929 28.5268C139.926 28.9687 139.924 29.1897 139.899 29.2988C139.725 30.039 138.822 30.3225 138.256 29.8141C138.173 29.7392 138.046 29.5588 137.791 29.1979L126.329 12.9809C125.772 12.1924 125.494 11.7982 125.5 11.4703C125.506 11.1588 125.656 10.8678 125.907 10.6833C126.172 10.489 126.654 10.489 127.62 10.489H135.373C135.669 10.489 135.817 10.489 135.952 10.5278C136.083 10.5652 136.204 10.6287 136.309 10.7143C136.418 10.8033 136.502 10.925 136.671 11.1684L144.603 22.6028C144.884 23.0078 145.025 23.2104 145.07 23.3701C145.215 23.878 144.94 24.4107 144.442 24.5867C144.285 24.6421 144.039 24.6447 143.546 24.6498C143.047 24.6551 142.797 24.6577 142.639 24.6051C142.134 24.4377 141.849 23.9054 141.989 23.3929C142.033 23.2318 142.173 23.0254 142.454 22.6127L150.23 11.1804C150.398 10.9329 150.482 10.8091 150.592 10.7185C150.697 10.6313 150.819 10.5667 150.95 10.5286C151.087 10.489 151.237 10.489 151.536 10.489H158.776C159.751 10.489 160.238 10.489 160.503 10.6849C160.755 10.8709 160.905 11.1639 160.909 11.4768C160.913 11.8063 160.628 12.2017 160.058 12.9927L148.658 28.8125C148.402 29.1685 148.273 29.3465 148.19 29.4204C147.62 29.9242 146.719 29.6333 146.552 28.8917C146.527 28.7829 146.527 28.5635 146.527 28.1248C146.527 27.6847 146.527 27.4647 146.552 27.3558C146.72 26.6135 147.622 26.3232 148.191 26.8285C148.275 26.9026 148.403 27.0813 148.659 27.4389L160.902 44.4988C161.469 45.2892 161.752 45.6844 161.748 46.0136C161.744 46.3262 161.593 46.6188 161.342 46.8044C161.077 47 160.591 47 159.618 47H151.647C151.346 47 151.195 47 151.057 46.9598C150.925 46.9212 150.802 46.8557 150.697 46.7674C150.587 46.6756 150.503 46.5503 150.335 46.2996L142.169 34.1149C141.925 33.7507 141.803 33.5686 141.759 33.427C141.598 32.8978 141.897 32.3379 142.426 32.1777C142.568 32.1348 142.787 32.1348 143.225 32.1348C143.661 32.1348 143.878 32.1348 144.019 32.1774C144.547 32.3365 144.847 32.8928 144.689 33.421C144.647 33.5623 144.527 33.7439 144.287 34.1071L136.251 46.29C136.083 46.544 136 46.671 135.889 46.764C135.783 46.8536 135.66 46.92 135.527 46.9592C135.388 47 135.236 47 134.932 47H127.079Z" fill="#133B65"></path><path d="M178.568 47.3129C175.856 47.3129 173.248 46.8783 170.745 46.009C168.745 45.2766 167.11 44.3844 165.84 43.3325C165.576 43.1135 165.443 43.0041 165.351 42.8289C165.269 42.6743 165.223 42.4558 165.237 42.2813C165.253 42.0837 165.342 41.9083 165.521 41.5576L165.547 41.5053C165.874 40.8629 166.037 40.5418 166.244 40.3982C166.462 40.2467 166.657 40.1969 166.921 40.2251C167.171 40.2518 167.508 40.4824 168.183 40.9434C169.184 41.6271 170.351 42.2377 171.683 42.7751C173.874 43.6097 176.169 44.0269 178.568 44.0269C180.863 44.0269 182.724 43.7488 184.149 43.1924C185.61 42.6013 186.67 41.8189 187.331 40.8453C188.027 39.8716 188.374 38.7937 188.374 37.6114C188.374 36.1858 187.957 35.0383 187.122 34.169C186.323 33.2997 185.262 32.6216 183.941 32.1348C182.619 31.6132 181.159 31.1612 179.559 30.7787C177.96 30.3962 176.36 29.9963 174.761 29.579C173.161 29.127 171.683 28.5358 170.327 27.8056C169.006 27.0754 167.928 26.1192 167.094 24.9369C166.294 23.7199 165.894 22.1377 165.894 20.1905C165.894 18.3823 166.363 16.7306 167.302 15.2354C168.276 13.7054 169.754 12.4884 171.736 11.5843C173.718 10.6455 176.256 10.176 179.351 10.176C181.402 10.176 183.437 10.4716 185.453 11.0627C186.99 11.4866 188.365 12.0415 189.578 12.7277C189.927 12.925 190.102 13.0236 190.229 13.1965C190.343 13.3518 190.418 13.5741 190.422 13.7668C190.427 13.9812 190.34 14.1859 190.167 14.5951L190.109 14.731C189.859 15.3231 189.733 15.6191 189.545 15.7747C189.353 15.9334 189.155 16.0048 188.906 16.0043C188.662 16.0038 188.349 15.841 187.725 15.5155C186.648 14.9538 185.526 14.5127 184.358 14.1922C182.619 13.7054 180.933 13.462 179.299 13.462C177.108 13.462 175.3 13.7576 173.874 14.3487C172.448 14.9398 171.388 15.7396 170.692 16.748C170.032 17.7216 169.701 18.8343 169.701 20.0862C169.701 21.5118 170.101 22.6593 170.901 23.5286C171.736 24.3979 172.814 25.076 174.135 25.5628C175.491 26.0496 176.969 26.4843 178.568 26.8668C180.168 27.2493 181.75 27.6665 183.315 28.1186C184.914 28.5706 186.375 29.1617 187.696 29.892C189.052 30.5874 190.13 31.5263 190.93 32.7085C191.765 33.8908 192.182 35.4382 192.182 37.3506C192.182 39.124 191.695 40.7757 190.721 42.3057C189.748 43.8009 188.253 45.018 186.236 45.9568C184.254 46.8609 181.698 47.3129 178.568 47.3129Z" fill="#133B65"></path><path d="M216.448 47.3129C213.701 47.3129 211.162 46.8609 208.833 45.9568C206.503 45.018 204.486 43.714 202.782 42.0449C201.078 40.3758 199.74 38.4112 198.766 36.151C197.827 33.8908 197.358 31.422 197.358 28.7445C197.358 26.067 197.827 23.5982 198.766 21.338C199.74 19.0778 201.078 17.1131 202.782 15.444C204.521 13.775 206.555 12.4884 208.885 11.5843C211.215 10.6455 213.753 10.176 216.5 10.176C219.143 10.176 221.629 10.6281 223.959 11.5321C225.797 12.2182 227.409 13.1858 228.792 14.435C229.133 14.7429 229.304 14.8968 229.39 15.1205C229.467 15.3208 229.473 15.5844 229.407 15.7884C229.333 16.0162 229.152 16.1966 228.791 16.5573L228.531 16.8175C228.145 17.2037 227.952 17.3968 227.748 17.4728C227.538 17.5509 227.353 17.5594 227.137 17.501C226.927 17.444 226.694 17.2504 226.228 16.8631C225.054 15.8879 223.794 15.154 222.446 14.6617C220.638 13.9662 218.691 13.6185 216.604 13.6185C214.414 13.6185 212.379 14.001 210.502 14.766C208.624 15.4962 206.99 16.5568 205.599 17.9477C204.208 19.3038 203.113 20.9033 202.313 22.7462C201.548 24.5544 201.165 26.5538 201.165 28.7445C201.165 30.9351 201.548 32.9519 202.313 34.7949C203.113 36.603 204.208 38.2026 205.599 39.5935C206.99 40.9496 208.624 42.0101 210.502 42.7751C212.379 43.5054 214.414 43.8705 216.604 43.8705C218.691 43.8705 220.638 43.5227 222.446 42.8273C223.794 42.3087 225.056 41.5582 226.23 40.5757C226.693 40.188 226.925 39.9942 227.135 39.9366C227.351 39.8777 227.537 39.8859 227.747 39.9638C227.952 40.0398 228.145 40.2329 228.531 40.6193L228.791 40.8795C229.152 41.2403 229.333 41.4208 229.407 41.6482C229.474 41.8521 229.467 42.1147 229.391 42.3151C229.305 42.5387 229.135 42.6935 228.794 43.003C227.409 44.2585 225.798 45.2431 223.959 45.9568C221.629 46.8609 219.125 47.3129 216.448 47.3129Z" fill="#133B65"></path><path d="M239.661 47C239.119 47 238.849 47 238.641 46.898C238.441 46.8004 238.28 46.6392 238.183 46.4399C238.081 46.2318 238.081 45.9612 238.081 45.42V12.069C238.081 11.5278 238.081 11.2572 238.183 11.049C238.28 10.8497 238.441 10.6886 238.641 10.5909C238.849 10.489 239.119 10.489 239.661 10.489H240.36C240.901 10.489 241.172 10.489 241.38 10.5909C241.58 10.6886 241.741 10.8497 241.838 11.049C241.94 11.2572 241.94 11.5278 241.94 12.069V45.42C241.94 45.9612 241.94 46.2318 241.838 46.4399C241.741 46.6392 241.58 46.8004 241.38 46.898C241.172 47 240.901 47 240.36 47H239.661Z" fill="#133B65"></path><path fill-rule="evenodd" clip-rule="evenodd" d="M261 16C264.866 16 268 12.866 268 9C268 5.13401 264.866 2 261 2C257.134 2 254 5.13401 254 9C254 12.866 257.134 16 261 16ZM261 18C265.971 18 270 13.9706 270 9C270 4.02944 265.971 0 261 0C256.029 0 252 4.02944 252 9C252 13.9706 256.029 18 261 18Z" fill="#133B65"></path><path d="M258 13V5H261.421C262.128 5 262.738 5.1181 263.25 5.35429C263.762 5.58286 264.157 5.91429 264.435 6.34857C264.714 6.78286 264.853 7.30095 264.853 7.90286C264.853 8.49714 264.714 9.01143 264.435 9.44571C264.157 9.87238 263.762 10.2 263.25 10.4286C262.738 10.6571 262.128 10.7714 261.421 10.7714H259.016L259.829 9.96V13H258ZM263.024 13L261.048 10.0971H263.002L265 13H263.024ZM259.829 10.1657L259.016 9.29714H261.319C261.884 9.29714 262.305 9.17524 262.584 8.93143C262.862 8.68 263.002 8.33714 263.002 7.90286C263.002 7.46095 262.862 7.1181 262.584 6.87429C262.305 6.63048 261.884 6.50857 261.319 6.50857H259.016L259.829 5.62857V10.1657Z" fill="#133B65"></path></svg>