<svg xmlns="http://www.w3.org/2000/svg" width="34" height="34" viewBox="0 0 34 34" fill="none"><rect width="33.6162" height="33.6162" rx="3.87879" fill="#133B65"></rect><path d="M11.8668 25.8584V13.6452H7.98653V25.8584H11.8672H11.8668ZM9.92748 11.978C11.2803 11.978 12.1226 11.0402 12.1226 9.86819C12.0972 8.66946 11.2803 7.75781 9.95321 7.75781C8.62517 7.75781 7.75781 8.66946 7.75781 9.86808C7.75781 11.0401 8.59975 11.9779 9.90205 11.9779H9.92717L9.92748 11.978ZM14.0146 25.8584H17.8946V19.0388C17.8946 18.6742 17.9199 18.3087 18.0224 18.0484C18.3028 17.3188 18.9412 16.5635 20.0134 16.5635C21.4171 16.5635 21.979 17.6834 21.979 19.3254V25.8584H25.8588V18.8557C25.8588 15.1045 23.9448 13.3589 21.392 13.3589C19.299 13.3589 18.3798 14.5828 17.869 15.4163H17.8949V13.6457H14.0148C14.0654 14.7914 14.0145 25.8588 14.0145 25.8588L14.0146 25.8584Z" fill="white"></path></svg>