<svg width="79" height="20" viewBox="0 0 79 20" fill="none" xmlns="http://www.w3.org/2000/svg">
<path fill-rule="evenodd" clip-rule="evenodd" d="M77.5695 0H60.7388C59.9337 0 59.25 0.644762 59.25 1.43905V18.56C59.25 19.3552 59.6986 20 60.5037 20H77.3344C78.1404 20 79 19.3552 79 18.56V1.43905C79 0.644762 78.3755 0 77.5695 0Z" fill="white"/>
<path fill-rule="evenodd" clip-rule="evenodd" d="M77.5695 0H60.7388C59.9337 0 59.25 0.644762 59.25 1.43905V18.56C59.25 19.3552 59.6986 20 60.5037 20H77.3344C78.1404 20 79 19.3552 79 18.56V1.43905C79 0.644762 78.3755 0 77.5695 0ZM66.7738 7.61905H69.4325V8.99143H69.4617C69.867 8.25143 71.0643 7.5 72.5446 7.5C75.3857 7.5 76.1786 9.02762 76.1786 11.8571V17.1429H73.3571V12.3781C73.3571 11.1114 72.8577 10 71.6897 10C70.2714 10 69.5952 10.9724 69.5952 12.5686V17.1429H66.7738V7.61905ZM62.0714 17.1429H64.8929V7.61905H62.0714V17.1429ZM65.2455 4.28571C65.2456 4.52018 65.2001 4.75238 65.1116 4.96903C65.0231 5.18569 64.8933 5.38257 64.7296 5.54842C64.566 5.71428 64.3717 5.84586 64.1578 5.93566C63.9439 6.02545 63.7146 6.0717 63.4831 6.07176C63.2515 6.07183 63.0223 6.0257 62.8083 5.93602C62.5944 5.84634 62.4 5.71486 62.2363 5.5491C62.0725 5.38333 61.9426 5.18652 61.854 4.96991C61.7653 4.7533 61.7197 4.52114 61.7197 4.28667C61.7197 3.81325 61.9053 3.3592 62.2358 3.02439C62.5663 2.68958 63.0146 2.50141 63.4821 2.50129C63.9496 2.50116 64.398 2.68908 64.7287 3.02372C65.0594 3.35835 65.2453 3.8123 65.2455 4.28571Z" fill="#10659B"/>
<path d="M56.4278 17.1426H53.7945V16.0084H53.7663C53.1804 16.696 52.1628 17.2617 50.4379 17.2617C48.0867 17.2617 46.0619 15.4703 46.0619 12.3912C46.0619 9.45789 48.0576 7.49979 50.5263 7.49979C52.0546 7.49979 53.0035 8.05027 53.5782 8.75312H53.6064V2.85693H56.4278V17.1426ZM51.2355 9.64265C49.6225 9.64265 48.7159 10.8074 48.7159 12.356C48.7159 13.9055 49.6225 15.1188 51.2355 15.1188C52.8502 15.1188 53.7945 13.9369 53.7945 12.356C53.7945 10.7312 52.8502 9.64265 51.2355 9.64265ZM44.8233 15.6084C44.1574 16.4817 42.7862 17.2617 40.5723 17.2617C37.6192 17.2617 35.7383 15.2807 35.7383 12.1693C35.7383 9.40455 37.4415 7.49979 40.6551 7.49979C43.4304 7.49979 45.1421 9.3455 45.1421 12.5922C45.1421 12.916 45.0904 13.2379 45.0904 13.2379H38.3998L38.4158 13.5322C38.6011 14.3531 39.2133 15.3569 40.6184 15.3569C41.8448 15.3569 42.6856 14.6893 43.0655 14.1665L44.8233 15.6084ZM42.4269 11.4274C42.4458 10.4236 41.7178 9.40455 40.5704 9.40455C39.2049 9.40455 38.476 10.4846 38.3998 11.4284H42.4269V11.4274Z" fill="#10659B"/>
<path d="M35.7381 7.61892H32.4464L29.1548 11.4284V2.85702H26.3333V17.1427H29.1548V12.3808L32.6336 17.1427H35.9648L31.9762 11.9361L35.7381 7.61892ZM15.0476 7.61892H17.7063V8.9913H17.7355C18.1408 8.2513 19.3381 7.49987 20.8184 7.49987C23.6596 7.49987 24.4524 9.32559 24.4524 11.857V17.1427H21.631V12.378C21.631 10.9761 21.1316 9.99987 19.9635 9.99987C18.5452 9.99987 17.869 11.137 17.869 12.5684V17.1427H15.0476V7.61892ZM10.3452 17.1427H13.1667V7.61892H10.3452V17.1427ZM11.7569 5.99987C11.9825 6.00526 12.2069 5.96491 12.4169 5.88121C12.6269 5.7975 12.8182 5.67212 12.9796 5.51245C13.1411 5.35277 13.2694 5.16202 13.3569 4.95141C13.4445 4.7408 13.4896 4.51459 13.4896 4.28606C13.4896 4.05754 13.4445 3.83132 13.3569 3.62071C13.2694 3.4101 13.1411 3.21935 12.9796 3.05968C12.8182 2.9 12.6269 2.77463 12.4169 2.69092C12.2069 2.60721 11.9825 2.56687 11.7569 2.57225C11.315 2.5828 10.8946 2.768 10.5857 3.08825C10.2769 3.4085 10.1039 3.8384 10.1039 4.28606C10.1039 4.73372 10.2769 5.16362 10.5857 5.48388C10.8946 5.80413 11.315 5.98932 11.7569 5.99987ZM2.82143 2.85702H0V17.1427H8.46429V14.2856H2.82143V2.85702Z" fill="#10659B"/>
</svg>
